# xmcd CD database file
#
# Track frame offsets:
#	150
#	16285
#	28892
#	43107
#	60200
#	71792
#	86555
#	110872
#	135157
#	148377
#	163684
#	180345
#
# Disc length: 2593 seconds
#
# Revision: 0
# Processed by: cddbd v1.5.2PL0 Copyright (c) Steve Scherf et al.
# Submitted via: CDex 1.50
#
DISCID=a50a1f0c
DTITLE=Various Artist - Amway Collection - Jazz
DYEAR=1995
DGENRE=Jazz
TTITLE0=My Baby Just Cares for Me
TTITLE1=Don't Explain
TTITLE2=Cabaret
TTITLE3=Take the Train
TTITLE4=Round Midnight
TTITLE5=April in Paris
TTITLE6=Misty
TTITLE7=Take Five
TTITLE8=One O' Clock Jump
TTITLE9=I'm a Fool To Want You
TTITLE10=Crying in th Chapel
TTITLE11=Blue Moon
EXTD=YEAR: 1995
EXTT0=
EXTT1=
EXTT2=
EXTT3=
EXTT4=
EXTT5=
EXTT6=
EXTT7=
EXTT8=
EXTT9=
EXTT10=
EXTT11=
PLAYORDER=
